<svg xmlns="http://www.w3.org/2000/svg" style="display: none;">
  <!-- Search Icon -->
  <symbol id="search" viewBox="0 0 24 24" fill="none" stroke="currentColor" stroke-width="2" stroke-linecap="round" stroke-linejoin="round">
    <circle cx="11" cy="11" r="8"></circle>
    <path d="m21 21-4.35-4.35"></path>
  </symbol>

  <!-- Refresh/Update Icon -->
  <symbol id="refresh" viewBox="0 0 24 24" fill="none" stroke="currentColor" stroke-width="2" stroke-linecap="round" stroke-linejoin="round">
    <path d="M3 12a9 9 0 0 1 9-9 9.75 9.75 0 0 1 6.74 2.74L21 8"></path>
    <path d="M21 3v5h-5"></path>
    <path d="M21 12a9 9 0 0 1-9 9 9.75 9.75 0 0 1-6.74-2.74L3 16"></path>
    <path d="M3 21v-5h5"></path>
  </symbol>

  <!-- Upload Icon -->
  <symbol id="upload" viewBox="0 0 24 24" fill="none" stroke="currentColor" stroke-width="2" stroke-linecap="round" stroke-linejoin="round">
    <path d="M21 15v4a2 2 0 0 1-2 2H5a2 2 0 0 1-2-2v-4"></path>
    <polyline points="17 8 12 3 7 8"></polyline>
    <line x1="12" y1="3" x2="12" y2="15"></line>
  </symbol>

  <!-- Download Icon -->
  <symbol id="download" viewBox="0 0 24 24" fill="none" stroke="currentColor" stroke-width="2" stroke-linecap="round" stroke-linejoin="round">
    <path d="M21 15v4a2 2 0 0 1-2 2H5a2 2 0 0 1-2-2v-4"></path>
    <polyline points="7 10 12 15 17 10"></polyline>
    <line x1="12" y1="15" x2="12" y2="3"></line>
  </symbol>
</svg>
